<?xml version="1.0" encoding="UTF-8"?>
<svg version="1.1" xmlns="http://www.w3.org/2000/svg" width="100" height="100">
<path d="M0 0 C23.76 0 47.52 0 72 0 C72 30.36 72 60.72 72 92 C48.24 92 24.48 92 0 92 C0 61.64 0 31.28 0 0 Z M4 4 C4 31.72 4 59.44 4 88 C25.12 88 46.24 88 68 88 C68 60.28 68 32.56 68 4 C46.88 4 25.76 4 4 4 Z " fill="#000000" transform="translate(14,4)"/>
<path d="M0 0 C5.625 -0.25 5.625 -0.25 9 2 C9.42915004 6.54899046 8.99170782 9.89210262 7 14 C8.2065625 14.6496875 8.2065625 14.6496875 9.4375 15.3125 C12 17 12 17 13 20 C7.06 20 1.12 20 -5 20 C-4 16 -4 16 -1.9375 14.75 C-1.298125 14.5025 -0.65875 14.255 0 14 C-0.165 13.505 -0.33 13.01 -0.5 12.5 C-1.30641834 8.46790828 -1.86987216 3.73974432 0 0 Z " fill="#000000" transform="translate(31,16)"/>
<path d="M0 0 C10.56 0 21.12 0 32 0 C32 1.32 32 2.64 32 4 C21.44 4 10.88 4 0 4 C0 2.68 0 1.36 0 0 Z " fill="#000000" transform="translate(26,74)"/>
<path d="M0 0 C10.56 0 21.12 0 32 0 C32 1.32 32 2.64 32 4 C21.44 4 10.88 4 0 4 C0 2.68 0 1.36 0 0 Z " fill="#000000" transform="translate(26,50)"/>
<path d="M0 0 C8.58 0 17.16 0 26 0 C26 1.32 26 2.64 26 4 C17.42 4 8.84 4 0 4 C0 2.68 0 1.36 0 0 Z " fill="#000000" transform="translate(26,62)"/>
<path d="M0 0 C6.6 0 13.2 0 20 0 C20 1.32 20 2.64 20 4 C13.4 4 6.8 4 0 4 C0 2.68 0 1.36 0 0 Z " fill="#000000" transform="translate(54,30)"/>
<path d="M0 0 C6.6 0 13.2 0 20 0 C20 1.32 20 2.64 20 4 C13.4 4 6.8 4 0 4 C0 2.68 0 1.36 0 0 Z " fill="#000000" transform="translate(54,20)"/>
<path d="M0 0 C3.3 0 6.6 0 10 0 C10 1.32 10 2.64 10 4 C6.7 4 3.4 4 0 4 C0 2.68 0 1.36 0 0 Z " fill="#000000" transform="translate(64,74)"/>
<path d="M0 0 C3.3 0 6.6 0 10 0 C10 1.32 10 2.64 10 4 C6.7 4 3.4 4 0 4 C0 2.68 0 1.36 0 0 Z " fill="#000000" transform="translate(64,62)"/>
<path d="M0 0 C3.3 0 6.6 0 10 0 C10 1.32 10 2.64 10 4 C6.7 4 3.4 4 0 4 C0 2.68 0 1.36 0 0 Z " fill="#000000" transform="translate(64,50)"/>
</svg>
